# xmcd CD database file
#
# Track frame offsets:
#	150
#	12325
#	22877
#	36775
#	59137
#	70692
#	86112
#	97172
#	109872
#	122452
#	136792
#	149425
#	161952
#	172995
#
# Disc length: 2458 seconds
#
# Revision: 2
# Processed by: cddbd v1.5.2PL0 Copyright (c) Steve Scherf et al.
# Submitted via: CDex 1.51
#
DISCID=c109980e
DTITLE=Howlin' Wolf - GOLD
DYEAR=1993
DGENRE=Blues
TTITLE0=Spoonful
TTITLE1=Who's been talking
TTITLE2=Smokestack Lightnin'
TTITLE3=Wang Dang Doodle
TTITLE4=Howlin' for my darling
TTITLE5=Goin' down slow
TTITLE6=Red Rooster
TTITLE7=Back door man
TTITLE8=Highway 49
TTITLE9=I walked from Dallas
TTITLE10=Killing Floor
TTITLE11=Little baby
TTITLE12=You'll be mine
TTITLE13=Moanin' at Midnight
EXTD=YEAR: 1993
EXTT0=
EXTT1=
EXTT2=
EXTT3=
EXTT4=
EXTT5=
EXTT6=
EXTT7=
EXTT8=
EXTT9=
EXTT10=
EXTT11=
EXTT12=
EXTT13=
PLAYORDER=
